{"title":"Stolen R5 DVDRip XVID AC3 HQ Hive-CM8","uid":7692955,"size":1468175254,"categoryP":"video","categoryS":"movies","magnet":"?xt=urn:btih:4517cefad32e06966e183ea8abdd09db818fda61&amp;dn=Stolen+R5+DVDRip+XVID+AC3+HQ+Hive-CM8&amp;tr=udp%3A%2F%2Ftracker.openbittorrent.com%3A80&amp;tr=udp%3A%2F%2Fopen.demonii.com%3A1337&amp;tr=udp%3A%2F%2Ftracker.coppersurfer.tk%3A6969&amp;tr=udp%3A%2F%2Fexodus.desync.com%3A6969","seeders":1,"leechers":0,"uploader":"HeroMaster","files":-1,"time":1349284979,"description":"Stolen.R5.DVDRip.XVID.AC3.HQ.Hive-CM8\n\n\nThx Hive\n\nCM8 Doing It Right The First Time \n\n\nSource:\nRussian DVD-R9 \nMedalon.2012.D.DVD9\nthx\n\nEncode:\nHere is a nice rip of the real source,\nnot that which most are selling reencoded of avi and custom vob files.\nQuality was nice, also came along with Studio 5.1 audio.\nso did the usual added brighntess, sharpness, fixed rgb and denoise.\ngot very nice and will do perfectly till bluray comes along.\nenjoy\n\nVideo: 720x400 @bitrate 1700 2pass\nAudio: English AC3 5.1 @384\nSample: Yes, included\n\n &lt;a href=&quot;\nhttp://www.imdb.com/title/tt1656186/&quot; rel=&quot;nofollow&quot; target=&quot;_NEW&quot;&gt;\nhttp://www.imdb.com/title/tt1656186/&lt;/a&gt;\n\n\nGeneral\nComplete name                  : Stolen.R5.DVDRip.XVID.AC3.HQ.Hive-CM8.avi\nFormat                         : AVI\nFormat/Info                    : Audio Video Interleave\nFile size                      : 1.34 GiB\nDuration                       : 1h 31mn\nOverall bit rate               : 2 091 Kbps\nWriting application            : Nandub v1.0rc2\nWriting library                : Nandub build 1853/release\n\nVideo\nID                             : 0\nFormat                         : MPEG-4 Visual\nFormat profile                 : Advanced Simple@L5\nFormat settings, BVOP          : 2\nFormat settings, QPel          : Yes\nFormat settings, GMC           : No warppoints\nFormat settings, Matrix        : Default (H.263)\nMuxing mode                    : Packed bitstream\nCodec ID                       : XVID\nCodec ID/Hint                  : XviD\nDuration                       : 1h 31mn\nBit rate                       : 1 698 Kbps\nWidth                          : 720 pixels\nHeight                         : 400 pixels\nDisplay aspect ratio           : 16:9\nFrame rate                     : 25.000 fps\nColor space                    : YUV\nChroma subsampling             : 4:2:0\nBit depth                      : 8 bits\nScan type                      : Progressive\nCompression mode               : Lossy\nBits/(Pixel*Frame)             : 0.236\nStream size                    : 1.09 GiB (81%)\nWriting library                : XviD 1.2.1 (UTC 2008-12-04)\n\nAudio\nID                             : 1\nFormat                         : AC-3\nFormat/Info                    : Audio Coding 3\nMode extension                 : CM (complete main)\nFormat settings, Endianness    : Big\nCodec ID                       : 2000\nDuration                       : 1h 31mn\nBit rate mode                  : Constant\nBit rate                       : 384 Kbps\nChannel(s)                     : 6 channels\nChannel positions              : Front: L C R, Side: L R, LFE\nSampling rate                  : 48.0 KHz\nBit depth                      : 16 bits\nCompression mode               : Lossy\nStream size                    : 252 MiB (18%)\nAlignment                      : Split accross interleaves\nInterleave, duration           : 40 ms (1.00 video frame)\nInterleave, preload duration   : 500 ms\n\n\nPlot:\nA former thief frantically searches for his missing daughter,\nwho has been kidnapped and locked in the trunk of a taxi.\n\n\nCast:\nNicolas Cage     ...     Will Montgomery\nJosh Lucas       ...     Vincent\nMalin Akerman    ...     Riley Jeffers\nDanny Huston     ...     Tim Harlend\n\n\nPoster:\n\n &lt;a href=&quot;\nhttp://i.imgur.com/njq1D.jpg&quot; rel=&quot;nofollow&quot; target=&quot;_NEW&quot;&gt;\nhttp://i.imgur.com/njq1D.jpg&lt;/a&gt;\n\n\nScreenshots:\n\n &lt;a href=&quot;\nhttp://i.imgur.com/rsBjO.jpg&quot; rel=&quot;nofollow&quot; target=&quot;_NEW&quot;&gt;\nhttp://i.imgur.com/rsBjO.jpg&lt;/a&gt;\n\n\nENJOY!","torrent":{"xt":"urn:btih:4517cefad32e06966e183ea8abdd09db818fda61","amp;dn":"Stolen+R5+DVDRip+XVID+AC3+HQ+Hive-CM8","amp;tr":["udp%3A%2F%2Ftracker.openbittorrent.com%3A80","udp%3A%2F%2Fopen.demonii.com%3A1337","udp%3A%2F%2Ftracker.coppersurfer.tk%3A6969","udp%3A%2F%2Fexodus.desync.com%3A6969"],"infoHash":"4517cefad32e06966e183ea8abdd09db818fda61","infoHashBuffer":{"type":"Buffer","data":[69,23,206,250,211,46,6,150,110,24,62,168,171,221,9,219,129,143,218,97]},"announce":[],"urlList":[]}}